<svg width="57" height="22" viewBox="0 0 57 22" fill="none" xmlns="http://www.w3.org/2000/svg">
<path d="M38.8901 15.5665L38.8902 15.5665C38.9109 14.2237 39.4737 13.1813 40.5833 12.5197L40.5912 12.515L40.5913 12.5151C40.77 12.413 41.1553 12.2697 41.6769 12.0929C42.2211 11.9084 42.9689 11.6699 43.9183 11.3778L38.8901 15.5665ZM38.8901 15.5665V15.5742M38.8901 15.5665V15.5742M38.8901 15.5742V16.9141M38.8901 15.5742V16.9141M42.3784 16.3072C42.3858 16.6307 42.4977 16.8212 42.6897 16.9543C42.9132 17.1093 43.3047 17.2259 43.936 17.2344L44.4292 17.2411V17.7344V20.4414V20.9414H43.9292C42.6525 20.9414 41.5261 20.6057 40.574 19.9171L42.3784 16.3072ZM42.3784 16.3072V15.7516C42.393 15.4962 42.4599 15.4113 42.4929 15.3832C42.4963 15.3824 42.5314 15.3646 42.6238 15.3301C42.7362 15.2882 42.8956 15.235 43.1059 15.1702C43.5253 15.0408 44.1243 14.8718 44.906 14.6627C45.5668 14.4865 46.1257 14.316 46.5737 14.1498V16.0938C46.5737 16.4546 46.4897 16.6871 46.3711 16.84C46.2542 16.9906 46.0611 17.1191 45.7348 17.1916C45.6092 17.2195 45.4726 17.2344 45.3237 17.2344H44.8237V17.7344V20.4414V20.949L45.3313 20.9413C46.4474 20.9244 47.4131 20.6711 48.1969 20.1517C48.8783 20.6811 49.6968 20.9414 50.6284 20.9414H51.1284V20.4414V17.707V17.244L50.6668 17.2085C50.5286 17.1979 50.487 17.1581 50.4705 17.1385C50.4458 17.1092 50.398 17.0261 50.3901 16.8231V9.47656C50.3901 8.23171 49.8859 7.13201 48.9274 6.19353C47.9519 5.23826 46.7293 4.76562 45.2964 4.76562H44.7964V5.26562V7.94531V8.44531H45.2964C45.6392 8.44531 45.8839 8.51563 46.0593 8.62383C46.2304 8.72933 46.3714 8.89258 46.4736 9.14489L46.4755 9.14934C46.5412 9.30715 46.5737 9.46966 46.5737 9.64062V10.1814C46.5664 10.192 46.5529 10.2093 46.529 10.2336C46.4525 10.3116 46.3123 10.4161 46.0824 10.5415C45.6251 10.7909 44.9108 11.071 43.9183 11.3778L42.3784 16.3072ZM38.8901 16.9141C38.8901 18.1271 39.4874 19.1322 40.5738 19.9169L38.8901 16.9141ZM0.499512 20.4414V20.9414H0.999512H4.06201H4.56201V20.4414V1.30078V0.800781H4.06201H0.999512H0.499512V1.30078V20.4414ZM4.75375 10.9136L4.65918 11.1258L4.76037 11.335L9.27209 20.6592L9.40865 20.9414H9.72217H12.7847H13.58L13.2353 20.2247L8.85127 11.1092L13.132 1.50432L13.4455 0.800781H12.6753H9.58545H9.26088L9.12875 1.09724L4.75375 10.9136ZM14.2886 4.79297H13.7886V5.29297V16.4219C13.7886 17.2233 14.082 18.0136 14.6158 18.7846L14.6157 18.7846L14.6193 18.7896C15.7018 20.3132 17.2334 21.0781 19.1558 21.0781H19.6558V20.5781V17.6797V17.1797H19.1558C18.847 17.1797 18.5823 17.1142 18.351 16.9919C18.1165 16.8673 17.969 16.7304 17.8791 16.5928C17.7913 16.4584 17.7417 16.2978 17.7417 16.0938V5.29297V4.79297H17.2417H14.2886ZM19.8589 20.5781V21.0843L20.3651 21.0781C21.9746 21.0582 23.3435 20.4657 24.4404 19.3089L24.4405 19.309L24.4469 19.302C25.2687 18.4019 25.7261 17.4394 25.7261 16.4219V5.29297V4.79297H25.2261H22.2729H21.7729V5.29297V16.0938C21.7729 16.1826 21.7534 16.292 21.7001 16.4257C21.5913 16.6898 21.4363 16.8662 21.2393 16.9826C21.0356 17.103 20.7517 17.1797 20.3589 17.1797H19.8589V17.6797V20.5781ZM26.5855 9.38473L26.5854 9.38473V9.39453V16.3125C26.5854 17.0358 26.8479 17.7828 27.3159 18.5433L27.3168 18.5448C28.2988 20.1281 29.7335 20.9414 31.5698 20.9414H33.1011H33.6011V20.4414V17.625V17.125H33.1011H31.5698C31.3509 17.125 31.1386 17.0602 30.9234 16.9122L30.9235 16.9121L30.9138 16.9057C30.5177 16.6468 30.4292 16.4263 30.4292 16.2578V9.53125C30.4292 9.51423 30.4381 9.44076 30.5118 9.29262C30.633 9.05837 30.774 8.90809 30.9249 8.8141C31.0756 8.72027 31.2658 8.66406 31.5151 8.66406H33.1011H33.6011V8.16406V5.32031V4.82031H33.1011H31.5151V4.82026L31.5078 4.82037C30.1288 4.84065 28.937 5.3741 27.9554 6.39577L27.9546 6.39658C27.0883 7.30228 26.6068 8.30065 26.5855 9.38473ZM33.9683 20.4414V20.9414H34.4683H37.4761H37.9761V20.4414V1V0.5H37.4761H34.4683H33.9683V1V20.4414ZM46.5813 10.1688C46.5813 10.1688 46.5811 10.1693 46.5805 10.1704L46.5813 10.1688ZM39.1089 9.06641V9.41115L39.4311 9.53373L41.9467 10.4908L42.6245 10.7486V10.0234C42.6245 9.56467 42.7134 9.23935 42.8519 9.01268C42.9852 8.79454 43.1864 8.63108 43.489 8.52794L43.489 8.52804L43.4985 8.52458C43.6478 8.4703 43.7906 8.44531 43.9292 8.44531H44.4292V7.94531V5.26562V4.76562H43.9292C42.5351 4.76562 41.3244 5.27664 40.3217 6.27926L40.3217 6.27923L40.3173 6.28376C39.5291 7.09214 39.1089 8.02422 39.1089 9.06641ZM53.0845 16.7676L53.0845 16.7676L53.0794 16.7702C52.6915 16.9697 52.377 17.2432 52.1622 17.5991C51.9478 17.9545 51.8511 18.3618 51.8511 18.8008C51.8511 19.1794 51.9466 19.5422 52.1284 19.8832C52.3272 20.2584 52.5946 20.5638 52.9392 20.7731C53.2845 20.9827 53.6781 21.0781 54.1011 21.0781C54.4555 21.0781 54.7961 20.9947 55.1176 20.8339C55.5135 20.636 55.8361 20.3639 56.0571 20.0078C56.2783 19.6516 56.3784 19.2423 56.3784 18.8008C56.3784 18.4463 56.295 18.1057 56.1342 17.7842C55.9363 17.3883 55.6642 17.0657 55.3081 16.8447C54.9519 16.6236 54.5426 16.5234 54.1011 16.5234C53.7466 16.5234 53.406 16.6069 53.0845 16.7676Z" fill="#000336" stroke="black"/>
</svg>
